<?xml version="1.0" encoding="UTF-8"?>
<svg 
    width="200" 
    height="200" 
    viewBox="0 0 24 24" 
    fill="none" 
    xmlns="http://www.w3.org/2000/svg">
    <rect width="24" height="24" rx="5" fill="#2ECC71"/>
    <path 
        d="M12 3C9.5 3 7 4.5 7 7V9H5C3.9 9 3 9.9 3 11V19C3 20.1 3.9 21 5 21H19C20.1 21 21 20.1 21 19V11C21 9.9 20.1 9 19 9H17V7C17 4.5 14.5 3 12 3ZM9 7C9 5.7 10.3 5 12 5C13.7 5 15 5.7 15 7V9H9V7ZM11 13H13V16H16V18H13V21H11V18H8V16H11V13Z" 
        fill="white"/>
</svg> 